<svg width="31" height="37" viewBox="0 0 31 37" fill="none" xmlns="https://www.w3.org/2000/svg">
<path d="M5.14065 0C3.77727 0 2.46972 0.541603 1.50566 1.50566C0.541603 2.46972 0 3.77727 0 5.14065V31.2393C0 32.6027 0.541603 33.9103 1.50566 34.8743C2.46972 35.8384 3.77727 36.38 5.14065 36.38H28.8667C29.1814 36.38 29.4831 36.255 29.7056 36.0325C29.9281 35.8101 30.053 35.5083 30.053 35.1937C30.053 34.8791 29.9281 34.5773 29.7056 34.3549C29.4831 34.1324 29.1814 34.0074 28.8667 34.0074H5.14065C4.47505 34.0074 3.83174 33.7675 3.32859 33.3318C2.82545 32.896 2.49617 32.2936 2.40108 31.6348H28.8667C29.1814 31.6348 29.4831 31.5098 29.7056 31.2873C29.9281 31.0648 30.053 30.7631 30.053 30.4485V5.14065C30.053 3.77727 29.5114 2.46972 28.5474 1.50566C27.5833 0.541603 26.2758 0 24.9124 0H5.14065ZM18.19 13.44C18.1908 14.2795 17.8582 15.0848 17.2652 15.679C16.6722 16.2732 15.8675 16.6074 15.0281 16.6083C14.1887 16.6091 13.3833 16.2764 12.7891 15.6835C12.195 15.0905 11.8607 14.2858 11.8599 13.4464C11.8595 13.0307 11.9409 12.6191 12.0996 12.2349C12.2583 11.8507 12.4911 11.5016 12.7847 11.2074C13.3776 10.6132 14.1823 10.279 15.0218 10.2781C15.8612 10.2773 16.6666 10.61 17.2607 11.2029C17.8549 11.7959 18.1892 12.6006 18.19 13.44ZM20.5626 19.476V20.3301C20.5626 22.0463 18.2058 23.3307 15.0265 23.3307C11.8472 23.3307 9.49043 22.0447 9.49043 20.3317V19.476C9.48981 19.3076 9.52238 19.1407 9.58629 18.9849C9.6502 18.8291 9.74419 18.6875 9.86289 18.5681C9.98159 18.4486 10.1227 18.3538 10.2781 18.2889C10.4334 18.224 10.6001 18.1904 10.7685 18.19H19.2846C19.4529 18.1904 19.6196 18.224 19.775 18.2889C19.9304 18.3538 20.0715 18.4486 20.1901 18.5681C20.3088 18.6875 20.4028 18.8291 20.4667 18.9849C20.5307 19.1407 20.5632 19.3076 20.5626 19.476Z" fill="#292930"/>
</svg>
